<svg xmlns="http://www.w3.org/2000/svg" width="31.378" height="23" viewBox="0 0 31.378 23"><defs><style>.a{fill:none;stroke:#afafb0;stroke-width:2px;}</style></defs><path class="a" d="M21.53,16.5A4.259,4.259,0,0,0,25.523,12,4.259,4.259,0,0,0,21.53,7.5,4.269,4.269,0,0,0,17.524,12,4.269,4.269,0,0,0,21.53,16.5Zm-10.683,0A4.259,4.259,0,0,0,14.84,12a4.259,4.259,0,0,0-3.993-4.5A4.269,4.269,0,0,0,6.841,12,4.269,4.269,0,0,0,10.848,16.5Zm0,3C7.736,19.5,1.5,21.255,1.5,24.75V28.5H20.2V24.75C20.2,21.255,13.959,19.5,10.848,19.5Zm10.683,0c-.387,0-.828.03-1.3.075a6.525,6.525,0,0,1,2.631,5.175V28.5h8.012V24.75C30.878,21.255,24.642,19.5,21.53,19.5Z" transform="translate(-0.5 -6.5)"/></svg>