<svg xmlns="http://www.w3.org/2000/svg" width="33.96" height="33.528" viewBox="0 0 33.96 33.528"><defs><style>.a{fill:none;stroke:#afafb0;stroke-width:2px;}</style></defs><path class="a" d="M5.833,8.875H20.417v8.75H5.833ZM24.062,13.25a2.187,2.187,0,0,0,2.188,2.188v4.375A2.187,2.187,0,0,1,24.062,22H2.188A2.187,2.187,0,0,1,0,19.813V15.437a2.188,2.188,0,0,0,0-4.375V6.688A2.187,2.187,0,0,1,2.188,4.5H24.062A2.187,2.187,0,0,1,26.25,6.688v4.375A2.187,2.187,0,0,0,24.062,13.25ZM21.875,8.51a1.094,1.094,0,0,0-1.094-1.094H5.469A1.094,1.094,0,0,0,4.375,8.51V17.99a1.094,1.094,0,0,0,1.094,1.094H20.781a1.094,1.094,0,0,0,1.094-1.094Z" transform="translate(-1.656 16.025) rotate(-43)"/></svg>